<svg width="71" height="70" viewBox="0 0 71 70" fill="none" xmlns="http://www.w3.org/2000/svg">
<path fill-rule="evenodd" clip-rule="evenodd" d="M21.3781 16.7151C21.6322 16.3499 21.9391 15.9976 22.3084 15.6677C24.3452 13.8475 26.844 13.9868 28.4312 14.3317C28.3265 13.7888 28.2717 13.2281 28.2717 12.6547C28.2717 7.79379 32.2122 3.85327 37.0731 3.85327C41.9339 3.85327 45.8744 7.79379 45.8744 12.6547C45.8744 13.2098 45.823 13.753 45.7247 14.2797C47.7697 13.275 50.0889 12.9534 52.3154 13.3607C52.493 12.1228 53.0289 10.9228 53.9314 9.92598C56.3415 7.26404 60.4531 7.05988 63.1151 9.46997C67.5478 13.4833 67.7345 20.2516 63.8232 24.5716L63.649 24.764M53.8652 28.0886C53.6321 29.1637 53.1226 30.1941 52.3312 31.0682C51.6476 31.8231 50.8272 32.3804 49.9418 32.7364C50.1457 33.0263 50.3448 33.3151 50.539 33.6024C51.0384 32.7375 51.7316 31.9971 52.5608 31.4419C53.5511 30.7789 54.7352 30.38 56.0147 30.3488L62.1371 30.1992C65.7269 30.1115 68.7081 32.9505 68.7958 36.5404C68.8835 40.1302 66.0444 43.1114 62.4546 43.1991L56.3323 43.3486C55.9487 43.358 55.5721 43.3339 55.2053 43.2792C55.2624 43.5447 55.3105 43.8085 55.3489 44.07C55.5787 45.6384 55.626 48.4528 53.3909 50.4501C53.0199 50.7816 52.6336 51.0481 52.2403 51.2602C51.8955 51.4808 51.5204 51.6703 51.1166 51.8228L14.8214 65.5327C11.1446 66.9215 6.9922 65.9046 4.37326 62.9739C1.75432 60.0432 1.20884 55.8031 3.00073 52.305L20.6893 17.7736C20.8871 17.3875 21.1187 17.0344 21.3781 16.7151M53.8652 28.0886C57.3748 28.7312 61.1149 27.5629 63.649 24.764ZM56.2254 38.9748C55.0512 39.0035 54.076 38.0749 54.0474 36.9006C54.0187 35.7264 54.9473 34.7512 56.1216 34.7226L62.2439 34.573C63.4182 34.5443 64.3933 35.473 64.422 36.6472C64.4507 37.8214 63.522 38.7966 62.3478 38.8253L56.2254 38.9748ZM41.4994 12.6547C41.4994 15.0992 39.5176 17.081 37.0731 17.081C34.6285 17.081 32.6468 15.0992 32.6468 12.6547C32.6468 10.2101 34.6285 8.22836 37.0731 8.22836C39.5176 8.22836 41.4994 10.2101 41.4994 12.6547Z" fill="white"/>
<path d="M37.0731 17.081C39.5176 17.081 41.4994 15.0992 41.4994 12.6547C41.4994 10.2101 39.5176 8.22836 37.0731 8.22836C34.6285 8.22836 32.6468 10.2101 32.6468 12.6547C32.6468 15.0992 34.6285 17.081 37.0731 17.081Z" fill="white"/>
<path fill-rule="evenodd" clip-rule="evenodd" d="M22.3084 15.6677C21.9391 15.9976 21.6322 16.3499 21.3781 16.7151C21.1187 17.0344 20.8871 17.3875 20.6893 17.7736L3.00073 52.305C1.20884 55.8031 1.75432 60.0432 4.37326 62.9739C6.9922 65.9046 11.1446 66.9215 14.8214 65.5327L51.1166 51.8228C51.5204 51.6703 51.8955 51.4808 52.2403 51.2602C52.6336 51.0481 53.0199 50.7816 53.3909 50.4501C55.626 48.4528 55.5787 45.6384 55.3489 44.07C55.3105 43.8085 55.2624 43.5447 55.2053 43.2792C55.5721 43.3339 55.9487 43.358 56.3323 43.3486L62.4546 43.1991C66.0444 43.1114 68.8835 40.1302 68.7958 36.5404C68.7081 32.9505 65.7269 30.1115 62.1371 30.1992L56.0147 30.3488C54.7352 30.38 53.5511 30.7789 52.5608 31.4419C51.7316 31.9971 51.0384 32.7375 50.539 33.6024C50.3448 33.3151 50.1457 33.0263 49.9418 32.7364C50.8272 32.3804 51.6476 31.8231 52.3312 31.0682C53.1226 30.1941 53.6321 29.1637 53.8652 28.0886C57.3748 28.7312 61.1149 27.5629 63.649 24.764L63.8232 24.5716C67.7345 20.2516 67.5478 13.4833 63.1151 9.46997C60.4531 7.05988 56.3415 7.26404 53.9314 9.92598C53.0289 10.9228 52.493 12.1228 52.3154 13.3607C50.0889 12.9534 47.7697 13.275 45.7247 14.2797C45.823 13.753 45.8744 13.2098 45.8744 12.6547C45.8744 7.79379 41.9339 3.85327 37.0731 3.85327C32.2122 3.85327 28.2717 7.79379 28.2717 12.6547C28.2717 13.2281 28.3265 13.7888 28.4312 14.3317C26.844 13.9868 24.3452 13.8475 22.3084 15.6677ZM56.2254 38.9748C55.0512 39.0035 54.076 38.0749 54.0474 36.9006C54.0187 35.7264 54.9473 34.7512 56.1216 34.7226L62.2439 34.573C63.4182 34.5443 64.3933 35.473 64.422 36.6472C64.4507 37.8214 63.522 38.7966 62.3478 38.8253L56.2254 38.9748ZM41.4994 12.6547C41.4994 15.0992 39.5176 17.081 37.0731 17.081C34.6285 17.081 32.6468 15.0992 32.6468 12.6547C32.6468 10.2101 34.6285 8.22836 37.0731 8.22836C39.5176 8.22836 41.4994 10.2101 41.4994 12.6547Z" fill="white"/>
<path d="M52.3312 31.0682C51.6476 31.8231 50.8272 32.3804 49.9418 32.7364C50.1457 33.0263 50.3448 33.3151 50.539 33.6024C51.0384 32.7375 51.7316 31.9971 52.5608 31.4419L52.3312 31.0682Z" fill="white"/>
<path d="M54.0474 36.9006C54.076 38.0749 55.0512 39.0035 56.2254 38.9748L62.3478 38.8253C63.522 38.7966 64.4507 37.8214 64.422 36.6472C64.3933 35.473 63.4182 34.5443 62.2439 34.573L56.1216 34.7226C54.9473 34.7512 54.0187 35.7264 54.0474 36.9006Z" fill="white"/>
<path d="M37.1433 17.2979C39.5879 17.2979 41.5696 15.3162 41.5696 12.8716C41.5696 10.427 39.5879 8.44531 37.1433 8.44531C34.6987 8.44531 32.717 10.427 32.717 12.8716C32.717 15.3162 34.6987 17.2979 37.1433 17.2979Z" fill="#FFD02F"/>
<path fill-rule="evenodd" clip-rule="evenodd" d="M64.4922 36.8644C64.5209 38.0386 63.5923 39.0138 62.418 39.0425L56.2957 39.192C55.1214 39.2207 54.1463 38.2921 54.1176 37.1178C54.0889 35.9436 55.0176 34.9684 56.1918 34.9398L62.3142 34.7902C63.4884 34.7615 64.4636 35.6902 64.4922 36.8644Z" fill="#4262FF"/>
<path d="M7.70577 60.2756C6.29208 58.6936 5.99764 56.4048 6.96489 54.5166L24.6534 19.9852C25.16 18.9962 26.5014 18.8237 27.2417 19.6522L50.2615 45.4122C51.0019 46.2407 50.6802 47.5543 49.6408 47.9469L13.3456 61.6568C11.3609 62.4065 9.11946 61.8576 7.70577 60.2756Z" fill="#A85CE7"/>
<path fill-rule="evenodd" clip-rule="evenodd" d="M6.96489 54.5166C5.99764 56.4049 6.29208 58.6937 7.70576 60.2757C9.11944 61.8576 11.3609 62.4066 13.3456 61.6569L20.2067 59.0652C19.5785 58.6651 18.9535 58.2457 18.3351 57.8067C15.0163 55.4506 11.9948 52.6088 9.66925 49.2372L6.96489 54.5166ZM13.9737 40.8339C17.4937 46.5809 22.4105 50.9521 27.4321 54.1723C28.1593 54.6386 28.8922 55.0832 29.6276 55.5066L41.2325 51.123C38.3484 50.0269 35.2431 48.5497 32.263 46.6387C26.4395 42.9043 21.4083 37.7279 19.1131 30.8008L13.9737 40.8339Z" fill="#DAADFF"/>
<path d="M41.8675 29.7484C48.8406 37.5516 52.726 45.4567 50.5458 47.405C48.3656 49.3533 40.9454 44.6069 33.9722 36.8037C26.9991 29.0005 23.1137 21.0954 25.2939 19.1471C27.4741 17.1988 34.8943 21.9452 41.8675 29.7484Z" fill="#A85CE7"/>
<path d="M39.0224 32.2854C44.2805 38.1693 47.5154 43.8574 46.2479 44.9901C44.9804 46.1228 39.6903 42.2712 34.4323 36.3872C29.1742 30.5033 25.9393 24.8152 27.2068 23.6825C28.4743 22.5498 33.7644 26.4014 39.0224 32.2854Z" fill="white"/>
<path fill-rule="evenodd" clip-rule="evenodd" d="M29.1119 27.8327C30.3817 30.0654 32.4653 32.9095 35.0666 35.8205C37.6679 38.7314 40.2608 41.1204 42.3372 42.6323C43.3812 43.3924 44.2572 43.9031 44.9143 44.1583C45.2442 44.2864 45.4746 44.3324 45.6178 44.3368C45.6357 44.3373 45.651 44.3372 45.6639 44.3367C45.6658 44.324 45.6676 44.3088 45.6691 44.2909C45.6808 44.1482 45.6609 43.914 45.5705 43.5719C45.3905 42.8903 44.9812 41.9627 44.3427 40.8401C43.0729 38.6074 40.9894 35.7632 38.3881 32.8523C35.7868 29.9414 33.1939 27.5524 31.1174 26.0405C30.0734 25.2804 29.1974 24.7697 28.5403 24.5145C28.2104 24.3864 27.98 24.3403 27.8369 24.336C27.8189 24.3354 27.8036 24.3355 27.7907 24.336C27.7888 24.3488 27.787 24.364 27.7855 24.3819C27.7738 24.5246 27.7937 24.7587 27.8841 25.1009C28.0641 25.7825 28.4735 26.7101 29.1119 27.8327ZM27.805 24.2784C27.8051 24.2785 27.8046 24.2797 27.8034 24.282C27.8044 24.2795 27.805 24.2783 27.805 24.2784ZM27.7356 24.3425C27.7333 24.3435 27.732 24.3438 27.7319 24.3438C27.7318 24.3437 27.733 24.3432 27.7356 24.3425ZM45.6496 44.3943C45.6496 44.3943 45.6501 44.393 45.6513 44.3908C45.6503 44.3933 45.6497 44.3944 45.6496 44.3943ZM45.719 44.3302C45.7214 44.3293 45.7227 44.3289 45.7228 44.329C45.7228 44.329 45.7217 44.3295 45.719 44.3302ZM26.0898 24.2428C26.1237 23.8295 26.2679 23.3807 26.6399 23.0482C27.012 22.7157 27.4741 22.6227 27.8886 22.6354C28.2979 22.6478 28.7298 22.7628 29.1563 22.9285C30.0118 23.2607 31.0247 23.8683 32.1189 24.665C34.3188 26.2668 37 28.7456 39.6567 31.7186C42.3135 34.6916 44.4764 37.6335 45.8217 39.999C46.4908 41.1755 46.9812 42.25 47.2156 43.1374C47.3324 43.5798 47.3983 44.0218 47.3649 44.4299C47.331 44.8433 47.1868 45.2921 46.8147 45.6245C46.4427 45.957 45.9806 46.05 45.566 46.0374C45.1567 46.025 44.7248 45.9099 44.2984 45.7443C43.4428 45.412 42.43 44.8044 41.3358 44.0077C39.1358 42.406 36.4547 39.9272 33.7979 36.9542C31.1412 33.9812 28.9782 31.0393 27.6329 28.6738C26.9638 27.4972 26.4735 26.4227 26.2391 25.5353C26.1223 25.093 26.0563 24.6509 26.0898 24.2428Z" fill="#A85CE7"/>
<path fill-rule="evenodd" clip-rule="evenodd" d="M48.9211 22.7833C48.2201 23.5576 48.2994 24.7023 49.009 25.3449C49.8798 26.1332 49.9465 27.4781 49.1582 28.3489C48.3698 29.2196 47.0249 29.2864 46.1542 28.498C43.6613 26.241 43.5283 22.4022 45.768 19.9285L45.8498 19.838C48.1355 17.3135 52.0466 17.0641 54.5878 19.3649C55.3491 20.0542 56.5761 20.0146 57.3228 19.1898L57.497 18.9975C58.2911 18.1204 58.2051 16.8179 57.3941 16.0836C56.5234 15.2952 56.4566 13.9503 57.2449 13.0796C58.0333 12.2089 59.3782 12.1421 60.2489 12.9304C62.8432 15.2792 62.9829 19.2758 60.6502 21.8523L60.476 22.0447C58.189 24.5707 54.2756 24.8202 51.733 22.5181C50.9732 21.8302 49.7484 21.8696 49.003 22.6929L48.9211 22.7833Z" fill="#FF6575"/>
</svg>
